<svg xmlns="http://www.w3.org/2000/svg" xml:space="preserve" width="27.407589mm" height="28.766203mm" viewBox="0 0 27.407589 28.766203">
  <style>
    path { fill: #000000; } /* Light mode color */
    @media (prefers-color-scheme: dark) {
      path { fill: #ffffff; } /* Dark mode color */
    }
  </style>
  <path d="M11.617793 28.514191c-12.95653-2.43767-15.92736-19.7409301-4.55854-26.5505311 9.9125-5.93729 23.50029 2.5789 19.69236 12.3422511-2.97806 7.63561-14.79677 9.67238-14.37249 2.47685.14144-2.39897 1.34926-4.38238 1.53059-2.51345.21675 2.23409.90406 1.75256 4.32963-3.0334 3.48762-4.8726401 3.44501-4.8990201-5.90124-3.6553301-2.36105.3142-2.47344 1.02722-.3711 2.35435.79025.4988901.79025.4988901.0527 1.3153301-4.09367 4.5312-3.36849 10.38469 1.57636 12.72399 2.86141 1.35368 8.02896.57947 11.39387-1.70704 2.01548-1.36956 1.95806-.27406-.10059 1.91877-4.914299 5.234731-10.910002 4.772511-13.27153 4.32827z"/>
</svg>
